<?xml version="1.0" standalone="no"?>
<!DOCTYPE svg PUBLIC "-//W3C//DTD SVG 20010904//EN"
 "http://www.w3.org/TR/2001/REC-SVG-20010904/DTD/svg10.dtd">
<svg version="1.0" xmlns="http://www.w3.org/2000/svg"
 width="800.000000pt" height="800.000000pt" viewBox="0 0 800.000000 800.000000"
 preserveAspectRatio="xMidYMid meet">
<metadata>
Created by potrace 1.14, written by Peter Selinger 2001-2017
</metadata>
<g transform="translate(0.000000,800.000000) scale(0.100000,-0.100000)"
fill="#000000" stroke="none">
<path d="M4005 6880 c-16 -6 -39 -12 -50 -15 -71 -16 -96 -25 -147 -53 -76
-40 -109 -65 -160 -117 -24 -23 -68 -58 -98 -76 -30 -18 -66 -44 -79 -58 -13
-15 -34 -38 -47 -52 -14 -14 -26 -34 -28 -45 -25 -118 -26 -120 -103 -185 -17
-14 -35 -34 -40 -45 -24 -49 -22 -309 4 -419 2 -11 7 -36 10 -55 3 -19 9 -43
14 -52 8 -14 6 -18 -8 -18 -33 0 -72 -42 -80 -85 -6 -39 -6 -165 0 -195 2 -8
7 -33 12 -55 18 -91 95 -175 159 -175 31 0 48 -28 53 -90 7 -87 56 -205 104
-247 17 -15 35 -36 40 -45 13 -25 22 -102 21 -188 -1 -85 -5 -90 -94 -122 -65
-22 -69 -26 -135 -124 -30 -46 -72 -94 -92 -107 -20 -14 -45 -32 -56 -41 -17
-13 -63 -48 -110 -83 -6 -5 -26 -15 -45 -25 -19 -9 -76 -36 -125 -61 -50 -25
-168 -75 -263 -111 -95 -36 -221 -91 -280 -123 -59 -32 -129 -69 -157 -83 -27
-14 -54 -32 -59 -40 -11 -17 -88 -93 -114 -112 -18 -13 -59 -105 -54 -122 2
-4 -1 -13 -7 -20 -5 -6 -13 -27 -19 -46 -6 -19 -29 -87 -51 -150 -38 -105 -61
-197 -76 -305 -5 -39 -8 -55 -20 -115 -2 -14 -7 -43 -10 -65 -3 -23 -8 -52
-10 -65 -3 -14 -7 -36 -10 -50 -4 -21 -18 -72 -40 -150 -2 -8 -9 -33 -15 -55
-6 -22 -12 -47 -15 -55 -8 -30 -54 -157 -83 -230 -16 -41 -33 -93 -36 -115
l-6 -40 75 -35 c50 -23 73 -39 70 -48 -3 -8 -8 -37 -11 -65 -4 -29 -8 -55 -10
-58 -2 -4 -7 -24 -10 -45 -3 -22 -7 -43 -9 -49 -4 -18 -16 -79 -20 -100 -2
-11 -4 -22 -5 -25 -2 -5 -2 -16 1 -170 2 -84 -4 -157 -17 -224 -2 -12 -7 -41
-10 -66 -3 -25 -10 -53 -15 -62 -6 -10 -7 -18 -3 -18 3 0 2 -6 -3 -13 -10 -12
-64 -173 -97 -287 -23 -83 -64 -305 -71 -395 -4 -44 -9 -89 -11 -100 -2 -10
-6 -68 -9 -127 l-6 -108 455 0 455 0 13 22 c10 17 13 93 14 293 1 298 3 313
64 440 21 44 48 103 60 130 11 28 25 58 30 67 6 10 10 25 10 33 0 8 5 15 12
15 6 0 9 3 5 6 -5 5 7 37 48 129 7 16 16 37 19 45 3 8 3 -21 0 -65 -6 -82 -11
-261 -14 -558 -1 -150 -5 -182 -31 -290 -24 -98 -29 -134 -23 -182 3 -33 6
-66 7 -73 0 -10 392 -12 1941 -10 1287 2 1940 6 1939 13 -1 6 -4 60 -7 120 -3
61 -8 126 -10 145 -3 19 -7 71 -11 114 -4 43 -9 88 -11 100 -2 12 -6 33 -9 49
-28 153 -74 297 -131 411 -19 38 -38 74 -43 80 -8 11 -51 121 -55 141 -1 6 -4
15 -7 20 -8 14 -37 104 -43 135 -3 14 -12 54 -21 90 -9 36 -18 108 -20 160 -2
52 -7 106 -10 120 -3 14 -12 73 -21 131 l-16 107 57 56 c53 52 57 59 51 89 -4
18 -9 43 -11 57 -2 14 -9 39 -15 55 -24 62 -60 190 -65 234 -3 25 -9 60 -12
76 -3 17 -7 39 -9 50 -2 11 -5 31 -8 45 -2 14 -7 54 -11 90 -4 36 -8 79 -10
95 -10 86 -16 145 -20 185 -7 68 -17 124 -28 150 -4 8 -31 81 -61 162 -48 131
-122 268 -144 268 -9 0 -88 74 -93 87 -2 5 -62 45 -134 89 -152 93 -145 89
-294 166 -96 51 -313 186 -331 207 -3 3 -31 26 -62 50 -33 24 -58 51 -58 61 0
10 -3 20 -7 22 -5 2 -28 32 -53 68 -24 36 -54 72 -65 81 -11 10 -33 29 -50 43
-16 14 -41 30 -56 36 -30 13 -33 30 -30 155 1 49 7 82 14 87 7 4 41 35 76 70
53 53 107 136 118 183 1 6 4 20 7 33 10 38 16 65 27 126 6 32 19 68 30 80 52
54 73 149 73 337 1 88 -2 110 -16 126 -18 19 -18 71 -1 143 10 41 9 401 -1
455 -5 28 -17 61 -26 75 -9 14 -23 42 -32 64 -24 62 -183 255 -252 306 -150
109 -213 140 -330 160 -28 5 -62 12 -76 16 -47 12 -85 13 -115 4z"/>
</g>
</svg>
